<svg xmlns="http://www.w3.org/2000/svg" xmlns:xlink="http://www.w3.org/1999/xlink" viewBox="0 0 283.1 474.18"><defs><style>.cls-1{fill:none;}.cls-2{fill:#048c80;}.cls-3{fill:#212121;}.cls-4{fill:url(#New_Pattern_Swatch_1);}</style><pattern id="New_Pattern_Swatch_1" data-name="New Pattern Swatch 1" width="500" height="500" patternTransform="translate(-1077.64 -386.11) scale(2.12)" patternUnits="userSpaceOnUse" viewBox="0 0 500 500"><rect class="cls-1" width="500" height="500"/><rect class="cls-2" width="500" height="500"/></pattern></defs><g id="Layer_2" data-name="Layer 2"><g id="Layer_1-2" data-name="Layer 1"><path class="cls-3" d="M129.59,0V335.42c0,1.87,0,3.73-.11,5.59a188.76,188.76,0,0,0-23.27,1.49A150.69,150.69,0,0,0,.78,410.14V128.8A128.81,128.81,0,0,1,129.59,0Z"/><path class="cls-4" d="M129.7,363V474.18H0c.23-1.69.49-3.35.78-5A128.57,128.57,0,0,1,109.29,364.3,155.82,155.82,0,0,1,127,363Z"/><path class="cls-4" d="M153.41,363V474.18a165.81,165.81,0,0,0,20.41-1.28A128.56,128.56,0,0,0,283.1,363Z"/></g></g></svg>