<svg xmlns="http://www.w3.org/2000/svg" xmlns:xlink="http://www.w3.org/1999/xlink" viewBox="0 0 2000 474.18"><defs><style>.cls-1{fill:none;}.cls-2{fill:#048c80;}.cls-3{fill:#212121;}.cls-4{fill:url(#New_Pattern_Swatch_1);}</style><pattern id="New_Pattern_Swatch_1" data-name="New Pattern Swatch 1" width="500" height="500" patternTransform="translate(-1077.64 -386.11) scale(2.12)" patternUnits="userSpaceOnUse" viewBox="0 0 500 500"><rect class="cls-1" width="500" height="500"/><rect class="cls-2" width="500" height="500"/></pattern></defs><g id="Layer_2" data-name="Layer 2"><g id="Layer_1-2" data-name="Layer 1"><path class="cls-3" d="M129.59,0V335.42c0,1.87,0,3.73-.11,5.59a188.76,188.76,0,0,0-23.27,1.49A150.69,150.69,0,0,0,.78,410.14V128.8A128.81,128.81,0,0,1,129.59,0Z"/><path class="cls-4" d="M129.7,363V474.18H0c.23-1.69.49-3.35.78-5A128.57,128.57,0,0,1,109.29,364.3,155.82,155.82,0,0,1,127,363Z"/><path class="cls-4" d="M153.41,363V474.18a165.81,165.81,0,0,0,20.41-1.28A128.56,128.56,0,0,0,283.1,363Z"/><path class="cls-3" d="M460.65,329.33h10.19a48.52,48.52,0,0,1,3.62,17.76q0,8.55-1,12.49-20.06,3-31.89,3-19.08,0-27.95-9.7t-8.88-30.42V118.91h18.74q12.83,0,18.09,6.08t5.26,20.55V314.21Q446.84,329.33,460.65,329.33Z"/><path class="cls-3" d="M626,293.16H535.28q1,18.09,8.38,28.44T569.47,332q19.06,0,43.73-11.18,9.54,9.87,12.17,26-26.31,18.74-63.13,18.74-34.86,0-52.77-21.54T491.55,280a128.44,128.44,0,0,1,4.6-35.67,79.69,79.69,0,0,1,13.48-27.29,61.53,61.53,0,0,1,21.7-17.59q12.82-6.24,29.27-6.25,16.77,0,29.59,5.1a59.9,59.9,0,0,1,21.7,14.47A60.58,60.58,0,0,1,625.2,235a84.92,84.92,0,0,1,4.44,28,119.42,119.42,0,0,1-1,15.61C628,283.46,627.12,288.35,626,293.16Zm-63.46-69q-25.65,0-27.62,38.8h54.58V259q0-15.78-6.58-25.32T562.57,224.12Z"/><path class="cls-3" d="M798.63,341.17a46,46,0,0,1-5.91,12.49,39.71,39.71,0,0,1-8.55,9.86q-21.37-2.62-31.24-18.74-21.37,20.72-46.69,20.72a57.57,57.57,0,0,1-22.52-4.11,46.17,46.17,0,0,1-16.11-11,44.78,44.78,0,0,1-9.53-15.78A54.87,54.87,0,0,1,655,316.18q0-13.81,4.77-24.17a46.56,46.56,0,0,1,13.48-17.26,62.17,62.17,0,0,1,20.39-10.52,85.74,85.74,0,0,1,25.48-3.62q17.74,0,27.61,1v-8.88q0-25-24.32-25-16.46,0-50,11.51-9.21-10.19-11.18-30.58a182.54,182.54,0,0,1,72-14.79q24.64,0,40.44,13.81t15.78,41.75v67.41Q789.43,334.27,798.63,341.17ZM715.78,333q16.44,0,30.9-14.47v-28.6l-10.19-.66q-4.92-.33-9.53-.33-14.48,0-22,5.42t-7.56,17.92q0,9.87,4.93,15.29T715.78,333Z"/><path class="cls-3" d="M824,217.54a40.35,40.35,0,0,1,5.42-12.49,37.37,37.37,0,0,1,8.39-9.87q26.63,3.3,36.49,29.6,12.5-29.26,41.76-29.27a78.86,78.86,0,0,1,19.73,2.3q0,23-10.53,40.12c-3.28-1.1-8.33-1.86-15.12-2.3q-19.07,0-30.91,20.38V360.89a128.53,128.53,0,0,1-21.2,1.65,141,141,0,0,1-21.87-1.65V251.41Q836.11,228.07,824,217.54Z"/><path class="cls-3" d="M1094.87,251.08v71.68q0,21,6.9,31.23-10.53,9.21-25.32,9.21-14.13,0-19.39-6.41t-5.26-20.23V260q0-14.8-3.62-20.72c-2.42-3.94-6.9-5.92-13.48-5.92q-17.43,0-32.55,15.79V360.89a76.09,76.09,0,0,1-10.36,1.32c-3.61.21-7.29.33-11,.33s-7.4-.12-11-.33a75.94,75.94,0,0,1-10.35-1.32V198.14l2-2.3h16.44q18.4,0,23,19.73,24-20.72,47.68-20.71t35,15.29Q1094.88,225.44,1094.87,251.08Z"/><path class="cls-3" d="M1262.87,293.16h-90.74q1,18.09,8.38,28.44T1206.32,332q19.07,0,43.73-11.18,9.54,9.87,12.17,26-26.31,18.74-63.13,18.74-34.86,0-52.77-21.54T1128.4,280a128.44,128.44,0,0,1,4.6-35.67,79.69,79.69,0,0,1,13.48-27.29,61.44,61.44,0,0,1,21.7-17.59q12.83-6.24,29.26-6.25,16.77,0,29.59,5.1a59.82,59.82,0,0,1,21.7,14.47A60.6,60.6,0,0,1,1262.05,235a84.92,84.92,0,0,1,4.44,28,117.66,117.66,0,0,1-1,15.61C1264.85,283.46,1264,288.35,1262.87,293.16Zm-63.45-69q-25.65,0-27.62,38.8h54.58V259q0-15.78-6.58-25.32T1199.42,224.12Z"/><path class="cls-3" d="M1438.11,251.08v71.68q0,21,6.91,31.23a37.15,37.15,0,0,1-25.32,9.21q-14.15,0-19.4-6.41T1395,336.56V260q0-14.8-3.62-20.72T1378,233.32q-17.45,0-32.55,15.79V360.89a76.09,76.09,0,0,1-10.36,1.32c-3.62.21-7.29.33-11,.33s-7.39-.12-11-.33a76.09,76.09,0,0,1-10.36-1.32V198.14l2-2.3h16.44q18.42,0,23,19.73,24-20.72,47.67-20.71t35,15.29Q1438.11,225.44,1438.11,251.08Z"/><path class="cls-2" d="M1570.61,260q0-26.64-17.09-26.64-14.14.68-28.61,15.46V360.89a139.21,139.21,0,0,1-42.74,0V198.14l2-2.3h16.11q19.39,0,23.67,20.39,23-21.37,45.7-21.37,27,0,38.14,23.67,25.32-23.67,51.3-23.67,21,0,32,14.3t11,37.32v76.28q0,21,6.9,31.23a39.82,39.82,0,0,1-25.48,9.21q-14,0-19.23-6.58t-5.26-20.06V259.63q0-26.3-17.43-26.31-13.16,0-28.28,15.79V360.89a139.21,139.21,0,0,1-42.74,0Z"/><path class="cls-2" d="M1870.13,293.16h-90.74q1,18.09,8.38,28.44T1813.58,332q19.07,0,43.73-11.18,9.54,9.87,12.17,26-26.31,18.74-63.13,18.74-34.86,0-52.77-21.54T1735.66,280a128.44,128.44,0,0,1,4.6-35.67,79.69,79.69,0,0,1,13.48-27.29,61.44,61.44,0,0,1,21.7-17.59q12.82-6.24,29.26-6.25,16.77,0,29.59,5.1a59.82,59.82,0,0,1,21.7,14.47A60.46,60.46,0,0,1,1869.31,235a84.92,84.92,0,0,1,4.44,28,119.42,119.42,0,0,1-1,15.61C1872.11,283.46,1871.23,288.35,1870.13,293.16Zm-63.45-69q-25.65,0-27.62,38.8h54.58V259q0-15.78-6.58-25.32T1806.68,224.12Z"/><path class="cls-2" d="M1998,197.49a61.57,61.57,0,0,1,0,30.9l-39.79-.66v86.48q0,15.12,14.14,15.12h20.39a59.36,59.36,0,0,1,3.29,18.74q0,8.88-1,11.51a270.65,270.65,0,0,1-39.46,3q-39.45,0-39.45-40.12V228.06l-25,.33a73.6,73.6,0,0,1,0-30.9l25,.32V174.14q0-14.46,5.26-20.38c3.5-3.95,9.54-5.92,18.08-5.92h18.74v50.3Z"/></g></g></svg>